<?xml version="1.0" encoding="utf-8"?>
<!-- Generator: Adobe Illustrator 25.1.0, SVG Export Plug-In . SVG Version: 6.00 Build 0)  -->
<svg version="1.1" id="Layer_1" xmlns="http://www.w3.org/2000/svg" xmlns:xlink="http://www.w3.org/1999/xlink" x="0px" y="0px"
	 viewBox="0 0 863.3 219.6" style="enable-background:new 0 0 863.3 219.6;" xml:space="preserve">
<style type="text/css">
	.st0{fill:#154833;}
</style>
<g>
	<g>
		<path class="st0" d="M82,175.7l-6.3,12.1c-0.5,0.9-1.5,1.3-2.5,1c-6.7-2.2-11.4-6.9-13.7-13.1c-5.3,9.3-15.3,14-25.9,14
			C14.3,189.8,0,175.7,0,152.9c0-22.9,15.9-38.3,37.5-38.3c8,0,15.7,2.3,21.6,5.9l0.3-2.6c0.1-1,1-1.8,2.1-1.8h12.1
			c1.1,0,2.1,0.9,2.1,2.1v42.9c0,5,1.2,9.3,5.7,12.1C82.2,173.6,82.5,174.8,82,175.7z M57.9,150.6v-15.5c-5-2.4-11.2-4.4-17.9-4.4
			c-13.7,0-21.6,9.2-21.6,22.2c0,12.4,7.9,20.6,19.2,20.6C49.9,173.5,58.2,163.4,57.9,150.6z"/>
		<path class="st0" d="M161.6,116c1.1,0,2.1,0.9,2.1,2.1V183c0,24.9-15.6,36.6-38.8,36.6c-13.4,0-22.7-2.3-31.6-6.7
			c-1-0.5-1.4-1.7-1-2.7l4.7-11.1c0.5-1.1,1.7-1.6,2.8-1.1c7.3,3.6,15.1,5.7,25.1,5.7c12,0,20.9-7,20.9-20v-8.3
			C141.1,183,132.1,188,121,188c-19.7,0-33-14.3-33-35.9c0-22,14.6-37.6,35.9-37.6c9.6,0,17.6,3.1,22.9,7.2l0.5-3.9
			c0.1-1,1-1.8,2.1-1.8H161.6z M146.2,151.9v-16c-4.3-3.1-10.6-6-18.7-6c-12.4,0-21.3,9.6-21.3,22.3c0,12,7.3,20.5,19.2,20.5
			C137.5,172.7,146.2,162.9,146.2,151.9z"/>
		<path class="st0" d="M224.2,129.2c0.2,1.3-0.8,2.4-2,2.4l0,0c-12.2,0-19.3,5.3-23.7,11v43.7c0,1.1-0.9,2.1-2.1,2.1h-13.5
			c-1.1,0-2.1-0.9-2.1-2.1v-68.2c0-1.1,0.9-2.1,2.1-2.1h13.5c1.1,0,2.1,0.9,2.1,2.1v9.8c4.6-8.9,12.3-12.3,21-12.3h0.8
			c1,0,1.9,0.7,2,1.7L224.2,129.2z"/>
		<path class="st0" d="M293.6,157.2h-49.9c1.4,11.3,9.2,17.5,22.5,17.5c7.6,0,14.5-1.3,20.2-3.6c1.2-0.5,2.5,0.2,2.8,1.4l2.8,10.2
			c0.3,1-0.2,2-1.2,2.4c-6.5,2.9-14.1,4.8-25.7,4.8c-24.2,0-39.5-15.9-39.5-37.5c0-23.3,15.5-37.8,35.8-37.8
			c19.6,0,34.3,14.2,34.3,39.9v0.6C295.7,156.3,294.8,157.2,293.6,157.2z M277.5,144.5c-1.1-10.2-8.2-16-16.2-16
			c-8.7,0-15.5,6.2-17.3,16H277.5z"/>
		<path class="st0" d="M370.5,157.2h-49.9c1.4,11.3,9.2,17.5,22.5,17.5c7.6,0,14.5-1.3,20.2-3.6c1.2-0.5,2.5,0.2,2.8,1.4l2.8,10.2
			c0.3,1-0.2,2-1.2,2.4c-6.5,2.9-14.1,4.8-25.7,4.8c-24.2,0-39.5-15.9-39.5-37.5c0-23.3,15.5-37.8,35.8-37.8
			c19.6,0,34.3,14.2,34.3,39.9v0.6C372.5,156.3,371.6,157.2,370.5,157.2z M354.4,144.5c-1.1-10.2-8.2-16-16.2-16
			c-8.7,0-15.5,6.2-17.3,16H354.4z"/>
		<path class="st0" d="M494.3,142.9v43.5c0,1.1-0.9,2-2,2h-5.9c-1.1,0-2-0.9-2-2v-42.1c0-14-6.2-20-16.9-20
			c-8.6,0-16.7,5.4-22.3,11.2c0.4,2.3,0.6,4.7,0.6,7.4v43.5c0,1.1-0.9,2-2,2h-5.9c-1.1,0-2-0.9-2-2v-42.1c0-14-6.2-20-16.9-20
			c-8.4,0-16.5,5.7-21.7,12v50.1c0,1.1-0.9,2-2,2h-5.9c-1.1,0-2-0.9-2-2v-67.8c0-1.1,0.9-2,2-2h5.9c1.1,0,2,0.9,2,2v7.9
			c6-6.6,13.3-11.3,23.7-11.3c10.3,0,17.9,4,21.7,12.2c7.6-7.2,15.3-12.2,26.8-12.2C485,115.1,494.3,124.3,494.3,142.9z"/>
		<path class="st0" d="M512.4,93c0-4.3,3.3-7.6,7.6-7.6s7.6,3.3,7.6,7.6s-3.3,7.6-7.6,7.6C515.7,100.5,512.4,97.3,512.4,93z
			 M516.9,116.6h5.7c1.1,0,2,0.9,2,2v67.8c0,1.1-0.9,2-2,2h-5.7c-1.1,0-2-0.9-2-2v-67.8C514.9,117.5,515.8,116.6,516.9,116.6z"/>
		<path class="st0" d="M608.3,145.2v41.2c0,1.1-0.9,2-2,2h-5.9c-1.1,0-2-0.9-2-2v-39.8c0-14.5-6.9-22.3-18.3-22.3
			c-9.4,0-18.5,5.4-24.2,12v50.1c0,1.1-0.9,2-2,2H548c-1.1,0-2-0.9-2-2v-67.8c0-1.1,0.9-2,2-2h5.9c1.1,0,2,0.9,2,2v8.2
			c6.7-6.9,14.7-11.6,26-11.6C598.3,115.1,608.3,126.3,608.3,145.2z"/>
		<path class="st0" d="M658.1,180.1c-12.1-0.4-17.7-6.1-17.7-19v-35.3h19.3c1.1,0,2-0.9,2-2v-5.2c0-1.1-0.9-2-2-2h-19.3V101
			c0-1.1-0.9-2-2-2h-5.9c-1.1,0-2,0.9-2,2v15.6h-11.7c-1.1,0-2,0.9-2,2v5.2c0,1.1,0.9,2,2,2h11.7v36.6c0,18.8,9.2,27.2,27.3,27.3
			l0,0h0.3h0.6h9c0.7,0,1.3-0.3,1.7-0.9c1.4-2.1,2.7-3.9,3.9-5.6c1-1.3,0-3.2-1.6-3.2L658.1,180.1z"/>
	</g>
	<g>
		<path class="st0" d="M862.7,6.8c-17.9-7.4-38.2-8.8-58.7-4c-19,4.4-37.7,14.2-52.6,27.6c-2.2,2-4.5,4.2-6.6,6.4
			c-9,9.3-16.3,19.5-21,29.5c-4.6,9.7-7.8,19-9.9,29.2c-0.2,0.8-0.9,1.2-1.5,1.1s-0.9-0.5-0.9-1.1c0.5-7.9,2.1-15.9,4.5-23.8
			c3.4-10.8,8.4-21.2,15-30.8c0.3-0.5,0.4-1,0.1-1.4c-0.2-0.3-0.6-0.4-1-0.3c-12,3.4-22.9,10.3-33.6,21.1
			c-15.8,16.1-22.9,40.2-17.6,60c3.3,12.4,12.5,22.1,19.8,28.1c31.1-37.8,65.2-70.4,104.2-99.7c0.4-0.3,1-0.2,1.3,0.1l0.3,0.4
			l-0.4,0.3c-37.5,31.1-69.9,65.3-99,104.5c-7.5,10.3-14.9,21.3-22.4,33.4c-0.8,1.2,0,2.8,1.4,3c3.6,0.5,7.5-1.3,9.5-4.9
			c5.4-9.4,11.1-18.9,17.1-28l0.3-0.4l0.4,0.2c11.6,6.3,21.3,11.2,32.5,11.9c17.9,1.1,36.9-6.7,49.4-20.3c7.3-8,12.5-17.8,14.9-28.5
			c0.1-0.6-0.2-0.9-0.4-1c-0.3-0.2-0.7-0.3-1.2-0.1c-9.7,5.3-18.5,9.1-26.9,11.7c-7.3,2.3-14.5,4-21.4,5c-0.6,0.1-1.1-0.3-1.2-0.9
			c-0.1-0.5,0.2-1.2,0.9-1.4c6.6-1.8,16.5-4.9,25.9-9.9c9.5-5,18-10.4,26.1-16.7c2-1.6,4-3.3,5.9-5c27.4-24.5,44.7-59,47.4-94.7
			C863.3,7.4,863.1,7,862.7,6.8z"/>
	</g>
</g>
</svg>
